<svg width="209" height="209" viewBox="0 0 209 209" fill="none" xmlns="http://www.w3.org/2000/svg">
<g clip-path="url(#clip0_19_3708)">
<mask id="mask0_19_3708" style="mask-type:alpha" maskUnits="userSpaceOnUse" x="0" y="0" width="209" height="209">
<path fill-rule="evenodd" clip-rule="evenodd" d="M69.8554 20.8605C76.4303 8.45655 89.4713 0 104.5 0C119.529 0 132.57 8.45654 139.145 20.8604C152.565 16.7387 167.766 19.9804 178.393 30.6073C189.02 41.2342 192.261 56.4353 188.14 69.8554C200.543 76.4303 209 89.4713 209 104.5C209 119.529 200.543 132.57 188.14 139.145C192.261 152.565 189.019 167.766 178.393 178.393C167.766 189.02 152.565 192.261 139.145 188.14C132.57 200.543 119.529 209 104.5 209C89.4712 209 76.4302 200.543 69.8553 188.14C56.4353 192.261 41.2342 189.019 30.6073 178.393C19.9805 167.766 16.7388 152.565 20.8605 139.145C8.45656 132.57 0 119.529 0 104.5C0 89.4713 8.45655 76.4303 20.8605 69.8554C16.7387 56.4353 19.9804 41.2342 30.6073 30.6073C41.2342 19.9804 56.4353 16.7387 69.8554 20.8605Z" fill="#18B852"/>
</mask>
<g mask="url(#mask0_19_3708)">
<path fill-rule="evenodd" clip-rule="evenodd" d="M69.8554 20.8605C76.4303 8.45655 89.4713 0 104.5 0C119.529 0 132.57 8.45654 139.145 20.8604C152.565 16.7387 167.766 19.9804 178.393 30.6073C189.02 41.2342 192.261 56.4353 188.14 69.8554C200.543 76.4303 209 89.4713 209 104.5C209 119.529 200.543 132.57 188.14 139.145C192.261 152.565 189.019 167.766 178.393 178.393C167.766 189.02 152.565 192.261 139.145 188.14C132.57 200.543 119.529 209 104.5 209C89.4712 209 76.4302 200.543 69.8553 188.14C56.4353 192.261 41.2342 189.019 30.6073 178.393C19.9805 167.766 16.7388 152.565 20.8605 139.145C8.45656 132.57 0 119.529 0 104.5C0 89.4713 8.45655 76.4303 20.8605 69.8554C16.7387 56.4353 19.9804 41.2342 30.6073 30.6073C41.2342 19.9804 56.4353 16.7387 69.8554 20.8605Z" fill="#18B852"/>
<g opacity="0.48">
<path d="M171.649 89.4271L170.793 88.4551C170.04 87.601 168.578 87.769 168.06 88.7687C167.332 90.172 165.072 89.7787 164.967 88.2306L163.3 63.7642C163.194 62.2161 165.381 61.5334 166.292 62.8301C166.942 63.754 168.414 63.731 169.044 62.7871L169.76 61.7127C170.664 60.3591 172.733 60.2245 173.812 61.4492L173.946 61.602C175.091 62.9015 177.287 62.7586 178.245 61.3224L178.358 61.1534C179.261 59.7998 181.33 59.6652 182.409 60.8899L183.265 61.8619C184.017 62.716 185.48 62.5481 185.998 61.5482C186.725 60.145 188.986 60.5383 189.091 62.0864L190.758 86.5529C190.864 88.1009 188.677 88.7836 187.765 87.4868C187.116 86.563 185.644 86.586 185.014 87.53L184.297 88.6043C183.394 89.9579 181.325 90.0925 180.246 88.8679L180.111 88.7149C178.967 87.4155 176.771 87.5583 175.813 88.9946L175.7 89.1636C174.797 90.5172 172.728 90.6518 171.649 89.4271Z" stroke="#006F28" stroke-width="2.84864" stroke-linejoin="round"/>
<path d="M181.27 70.4152L172.774 79.9018" stroke="#006F28" stroke-width="2.84864" stroke-linecap="round" stroke-linejoin="round"/>
<path d="M181.876 79.3096L181.863 79.3105M172.181 71.0064L172.167 71.0073" stroke="#006F28" stroke-width="2.84864" stroke-linecap="round" stroke-linejoin="round"/>
<path d="M199.382 162.173L196.703 159.838C196.023 159.245 195.683 158.949 195.259 158.855C194.8 158.753 194.366 158.892 193.439 159.215C192.401 159.578 190.253 160.712 189.198 159.774C188.552 159.201 188.772 158.099 189.212 155.894L192.313 140.371C193.137 136.247 193.549 134.185 195.116 133.153C196.683 132.122 198.794 132.525 203.015 133.33L210.476 134.753C214.697 135.558 216.808 135.96 217.863 137.491C218.919 139.023 218.507 141.085 217.683 145.209L214.582 160.732C214.142 162.937 213.922 164.039 213.103 164.333C211.764 164.814 210.21 162.974 209.388 162.257C208.708 161.664 208.368 161.368 207.944 161.274C207.485 161.172 207.051 161.311 206.124 161.635L202.743 162.814C201.831 163.132 201.375 163.291 200.92 163.204C200.466 163.118 200.104 162.803 199.382 162.173Z" stroke="#006F28" stroke-width="2.84864" stroke-linecap="round" stroke-linejoin="round"/>
<path d="M209.477 143.644L198.775 150.686" stroke="#006F28" stroke-width="2.84864" stroke-linecap="round" stroke-linejoin="round"/>
<path d="M207.729 152.393L207.716 152.391M200.536 141.939L200.523 141.937" stroke="#006F28" stroke-width="2.84864" stroke-linecap="round" stroke-linejoin="round"/>
<path d="M136.245 209.324C137.127 209.492 137.568 209.577 137.941 209.799C137.993 209.83 138.043 209.862 138.093 209.897C138.447 210.146 138.698 210.51 139.2 211.238C140.356 212.915 140.933 213.753 141.804 213.986C141.92 214.017 142.04 214.04 142.16 214.054C143.056 214.158 143.914 213.593 145.63 212.464C146.375 211.974 146.748 211.729 147.172 211.628C147.231 211.615 147.291 211.603 147.35 211.593C147.781 211.524 148.222 211.608 149.104 211.776L149.267 211.808C151.517 212.237 152.643 212.451 153.478 211.901C154.314 211.352 154.533 210.252 154.972 208.053L155.004 207.895C155.176 207.033 155.262 206.602 155.49 206.238C155.521 206.187 155.555 206.138 155.59 206.089C155.845 205.743 156.218 205.498 156.963 205.007C158.679 203.879 159.537 203.314 159.775 202.464C159.807 202.349 159.831 202.233 159.845 202.115C159.951 201.24 159.373 200.401 158.218 198.725C157.716 197.997 157.465 197.633 157.362 197.218C157.348 197.16 157.336 197.102 157.326 197.044C157.256 196.623 157.342 196.192 157.514 195.33L157.546 195.171C157.985 192.972 158.204 191.873 157.642 191.056C157.079 190.24 155.954 190.026 153.704 189.596L153.541 189.565C152.659 189.397 152.218 189.313 151.845 189.091C151.793 189.06 151.743 189.027 151.694 188.993C151.339 188.744 151.088 188.38 150.586 187.651C149.431 185.975 148.853 185.137 147.983 184.904C147.866 184.872 147.747 184.849 147.626 184.836C146.73 184.732 145.872 185.296 144.157 186.425C143.411 186.916 143.038 187.161 142.614 187.261C142.555 187.275 142.496 187.287 142.436 187.296C142.005 187.365 141.564 187.281 140.682 187.113L140.519 187.082C138.269 186.653 137.144 186.438 136.308 186.988C135.473 187.538 135.253 188.637 134.814 190.836L134.782 190.995C134.61 191.857 134.524 192.288 134.297 192.652C134.265 192.702 134.231 192.752 134.196 192.8C133.941 193.147 133.569 193.392 132.823 193.882C131.108 195.011 130.25 195.576 130.011 196.426C129.979 196.54 129.956 196.657 129.942 196.774C129.835 197.65 130.413 198.488 131.568 200.164C132.07 200.893 132.321 201.257 132.424 201.672C132.438 201.729 132.45 201.787 132.46 201.846C132.531 202.267 132.445 202.698 132.273 203.56L132.241 203.718C131.802 205.917 131.582 207.017 132.145 207.833C132.707 208.65 133.832 208.864 136.083 209.293L136.245 209.324Z" stroke="#006F28" stroke-width="2.84864"/>
<path d="M150.247 195.924L139.545 202.965" stroke="#006F28" stroke-width="2.84864" stroke-linecap="round" stroke-linejoin="round"/>
<path d="M148.499 204.673L148.483 204.67M141.309 194.219L141.292 194.216" stroke="#006F28" stroke-width="2.84864" stroke-linecap="round" stroke-linejoin="round"/>
<path d="M148.018 41.1338C148.9 41.302 149.341 41.3861 149.714 41.6084C149.765 41.6392 149.816 41.672 149.865 41.7065C150.22 41.9555 150.471 42.3196 150.973 43.0479C152.128 44.7242 152.706 45.5625 153.576 45.7955C153.693 45.8269 153.812 45.8496 153.933 45.8635C154.829 45.9674 155.687 45.4029 157.402 44.274C158.148 43.7836 158.52 43.5384 158.945 43.438C159.004 43.4241 159.063 43.4123 159.123 43.4028C159.554 43.3338 159.995 43.4179 160.877 43.5861L161.04 43.6171C163.29 44.0462 164.415 44.2608 165.251 43.7109C166.086 43.1613 166.306 42.0618 166.745 39.863L166.777 39.7041C166.949 38.8423 167.035 38.4114 167.262 38.0472C167.294 37.9965 167.327 37.9472 167.363 37.899C167.618 37.5525 167.99 37.3074 168.736 36.8168C170.451 35.6881 171.309 35.1236 171.548 34.2732C171.58 34.159 171.603 34.0424 171.617 33.9247C171.723 33.0492 171.146 32.2111 169.99 30.5346C169.489 29.8063 169.238 29.4421 169.135 29.0275C169.121 28.9699 169.109 28.9118 169.099 28.8533C169.028 28.4323 169.114 28.0014 169.286 27.1396L169.318 26.9806C169.757 24.7818 169.977 23.6824 169.414 22.866C168.852 22.0497 167.726 21.8351 165.476 21.4059L165.313 21.3749C164.431 21.2067 163.99 21.1226 163.618 20.9003C163.566 20.8695 163.515 20.8367 163.466 20.8021C163.111 20.5533 162.861 20.1891 162.358 19.4608C161.203 17.7844 160.626 16.9462 159.755 16.7131C159.638 16.6818 159.519 16.659 159.399 16.6451C158.503 16.5414 157.645 17.1058 155.929 18.2347C155.184 18.7251 154.811 18.9703 154.387 19.0707C154.328 19.0846 154.268 19.0964 154.208 19.106C153.777 19.175 153.336 19.0909 152.454 18.9227L152.292 18.8917C150.041 18.4625 148.916 18.2479 148.081 18.7977C147.245 19.3475 147.026 20.4469 146.586 22.6456L146.555 22.8046C146.383 23.6664 146.296 24.0973 146.069 24.4615C146.037 24.5121 146.004 24.5615 145.968 24.6096C145.714 24.9561 145.341 25.2013 144.596 25.6918C142.88 26.8207 142.022 27.3851 141.784 28.2354C141.752 28.3496 141.728 28.4663 141.714 28.5839C141.608 29.4595 142.185 30.2977 143.341 31.974C143.843 32.7024 144.094 33.0665 144.196 33.4812C144.211 33.5388 144.223 33.5968 144.233 33.6553C144.303 34.0764 144.217 34.5073 144.045 35.3691L144.013 35.528C143.574 37.7268 143.354 38.8263 143.917 39.6426C144.48 40.4591 145.605 40.6737 147.855 41.1028L148.018 41.1338Z" stroke="#006F28" stroke-width="2.84864"/>
<path d="M162.008 27.7334L151.307 34.7749" stroke="#006F28" stroke-width="2.84864" stroke-linecap="round" stroke-linejoin="round"/>
<path d="M160.261 36.4825L160.245 36.4794M153.07 26.0289L153.054 26.0259" stroke="#006F28" stroke-width="2.84864" stroke-linecap="round" stroke-linejoin="round"/>
<path d="M44.6359 144.805C45.4804 144.5 45.9027 144.348 46.3366 144.349C46.3969 144.349 46.4571 144.351 46.5171 144.356C46.949 144.389 47.3506 144.574 48.1537 144.945C50.0024 145.798 50.9266 146.225 51.7941 145.982C51.9106 145.949 52.0249 145.908 52.1356 145.858C52.9594 145.491 53.4096 144.568 54.3099 142.722C54.7012 141.92 54.8968 141.519 55.2107 141.216C55.2544 141.174 55.2994 141.134 55.3461 141.095C55.6816 140.816 56.1039 140.664 56.9484 140.359L57.1041 140.302C59.2588 139.524 60.3362 139.135 60.7746 138.236C61.2132 137.337 60.8416 136.28 60.0985 134.164L60.0448 134.011C59.7535 133.182 59.6078 132.768 59.6179 132.338C59.6192 132.279 59.6229 132.219 59.6287 132.16C59.6713 131.732 59.8668 131.331 60.258 130.529C61.1584 128.683 61.6087 127.76 61.3803 126.907C61.3497 126.792 61.3103 126.68 61.2625 126.572C60.9075 125.764 59.9832 125.338 58.1346 124.485C57.3315 124.114 56.93 123.929 56.6302 123.624C56.5886 123.582 56.5486 123.538 56.5104 123.493C56.235 123.167 56.0894 122.752 55.7981 121.923L55.7444 121.77C55.0012 119.654 54.6296 118.597 53.7293 118.181C52.8291 117.766 51.7517 118.155 49.597 118.933L49.4413 118.989C48.5968 119.294 48.1745 119.447 47.7405 119.445C47.6802 119.445 47.6201 119.443 47.56 119.438C47.1281 119.405 46.7266 119.22 45.9233 118.849C44.0749 117.996 43.1505 117.569 42.283 117.812C42.1665 117.845 42.0522 117.886 41.9415 117.936C41.1177 118.303 40.6676 119.226 39.7671 121.072C39.3759 121.874 39.1803 122.275 38.8664 122.578C38.8228 122.62 38.7776 122.66 38.731 122.699C38.3956 122.978 37.9733 123.13 37.1288 123.435L36.973 123.492C34.8183 124.27 33.7409 124.659 33.3025 125.558C32.8639 126.457 33.2355 127.514 33.9787 129.63L34.0324 129.783C34.3237 130.612 34.4694 131.027 34.4593 131.456C34.4579 131.515 34.4543 131.575 34.4484 131.634C34.4059 132.062 34.2103 132.463 33.8191 133.265C32.9187 135.111 32.4685 136.034 32.6968 136.887C32.7274 137.002 32.7669 137.114 32.8146 137.222C33.1696 138.03 34.0939 138.456 35.9424 139.309C36.7456 139.68 37.1471 139.865 37.4469 140.17C37.4885 140.212 37.5285 140.256 37.5667 140.301C37.8422 140.628 37.9878 141.042 38.2791 141.871L38.3328 142.024C39.076 144.14 39.4476 145.197 40.3478 145.613C41.2481 146.028 42.3254 145.639 44.4801 144.861L44.6359 144.805Z" stroke="#006F28" stroke-width="2.84864"/>
<path d="M49.8402 126.144L44.2237 137.657" stroke="#006F28" stroke-width="2.84864" stroke-linecap="round" stroke-linejoin="round"/>
<path d="M52.7973 134.561L52.7818 134.567M41.282 129.234L41.2666 129.24" stroke="#006F28" stroke-width="2.84864" stroke-linecap="round" stroke-linejoin="round"/>
<path d="M148.314 164.281C154.068 167.67 161.543 165.86 165.012 160.238C169.722 152.604 164.015 138.834 164.015 138.834C161.557 141.7 160.014 143.107 156.7 144.934C155.572 143.306 155.532 142.511 155.862 140.537C151.491 141.866 146.532 144.149 144.177 147.966C140.708 153.587 142.561 160.892 148.314 164.281Z" stroke="#006F28" stroke-width="2.84864" stroke-linejoin="round"/>
<path d="M149.64 156.385L157.989 154.364" stroke="#006F28" stroke-width="2.84864" stroke-linecap="round" stroke-linejoin="round"/>
<path d="M152.78 151.295L152.792 151.302M154.837 159.446L154.849 159.453" stroke="#006F28" stroke-width="2.84864" stroke-linecap="round" stroke-linejoin="round"/>
<path d="M-8.59906 28.1672L-4.24777 24.9869C-1.17097 22.7381 0.367426 21.6137 0.608287 19.9811C0.849147 18.3484 -0.301603 16.8453 -2.6031 13.8389L-3.41682 12.776C-5.71832 9.7697 -6.86907 8.26653 -8.53996 8.03116C-10.2108 7.79584 -11.7492 8.92024 -14.826 11.169L-27.8799 20.71L-23.8113 26.0245" stroke="#006F28" stroke-width="2.84864" stroke-linecap="round" stroke-linejoin="round"/>
<path d="M110.883 41.0577C115.803 39.5102 119.396 37.0566 118.909 35.5775C118.421 34.0984 114.038 34.1538 109.118 35.7014C104.198 37.2489 100.605 39.7025 101.092 41.1816C101.58 42.6607 105.963 42.6053 110.883 41.0577Z" stroke="#006F28" stroke-width="2.84864"/>
<path d="M120.886 41.6024C121.373 43.0816 117.78 45.5351 112.86 47.0827C107.94 48.6302 103.557 48.6857 103.07 47.2065" stroke="#006F28" stroke-width="2.84864"/>
<path d="M118.914 35.5751L122.796 47.3591C123.332 48.9861 119.779 51.5596 114.859 53.1071C109.939 54.6547 105.516 54.5902 104.98 52.9632L101.098 41.1792" stroke="#006F28" stroke-width="2.84864"/>
<path d="M98.2036 34.7018C103.123 33.1542 106.717 30.7006 106.229 29.2215C105.742 27.7424 101.359 27.7979 96.4388 29.3454C91.519 30.8929 87.9258 33.3465 88.4131 34.8256C88.9005 36.3048 93.2838 36.2493 98.2036 34.7018Z" stroke="#006F28" stroke-width="2.84864"/>
<path d="M96.9732 42.4743C94.2789 42.9816 91.634 42.9338 90.6089 41.5205M99.1791 49.1698C96.4849 49.6771 93.84 49.6293 92.8148 48.216" stroke="#006F28" stroke-width="2.84864" stroke-linecap="round"/>
<path d="M101.39 55.8659C98.6956 56.3732 96.0507 56.3253 95.0256 54.912L88.4077 34.8257" stroke="#006F28" stroke-width="2.84864" stroke-linecap="round"/>
<path d="M107.105 31.8979L106.222 29.2197" stroke="#006F28" stroke-width="2.84864" stroke-linecap="round"/>
<path d="M40.2751 54.483C41.6103 55.9219 41.4989 58.1461 40.0262 59.4507C38.5535 60.7553 36.2772 60.6464 34.942 59.2075C33.6068 57.7686 33.7183 55.5444 35.1909 54.2398C36.6636 52.9352 38.9399 53.044 40.2751 54.483Z" stroke="#006F28" stroke-width="2.84864" stroke-linecap="round" stroke-linejoin="round"/>
<path d="M35.1054 45.7704C37.75 43.4276 39.9464 42.2113 41.2343 41.6251C41.9758 41.2876 42.8192 41.5171 43.3687 42.1093L52.8025 52.2761C53.8809 53.4382 53.3823 55.473 52.0135 56.2927C50.8392 56.9961 49.3942 58.0053 47.7829 59.4328C42.7155 63.9219 43.2463 66.8805 34.3323 71.8609C33.472 72.3416 32.3833 72.1582 31.7177 71.4409L22.0307 61.0012C21.087 59.9842 21.3809 58.3725 22.5856 57.666C30.5378 53.0022 30.2213 50.0972 35.1054 45.7704Z" stroke="#006F28" stroke-width="2.84864" stroke-linecap="round" stroke-linejoin="round"/>
<path d="M24.04 63.1687C26.1213 61.3248 26.4492 58.0057 25.0918 56.0733M38.2549 43.9296C40.2274 46.0553 43.9757 46.3983 45.8258 44.7593M51.1745 50.5237C49.1489 52.3181 48.4525 55.423 50.0131 57.4359M37.4901 69.2853C35.3538 66.983 31.7118 66.8087 29.3555 68.8962" stroke="#006F28" stroke-width="2.84864" stroke-linecap="round" stroke-linejoin="round"/>
<path d="M54.004 59.8539C52.9886 60.4944 51.8288 61.3386 50.5795 62.4454C45.999 66.5032 46.1709 69.5027 39.5257 73.5722" stroke="#006F28" stroke-width="2.84864" stroke-linecap="round" stroke-linejoin="round"/>
<path d="M-12.8422 196.86C-11.1636 194.007 -9.55272 192.292 -8.57051 191.4C-8.00497 190.887 -7.17953 190.854 -6.51037 191.23L4.97908 197.683C6.29242 198.421 6.44909 200.389 5.46358 201.514C4.61804 202.478 3.62044 203.794 2.59764 205.532C-0.618911 211 0.736303 213.506 -5.78809 220.505C-6.4177 221.18 -7.44967 221.324 -8.26033 220.869L-20.0581 214.242C-21.2074 213.597 -21.4222 212.066 -20.5504 211.09C-14.7956 204.648 -15.9425 202.13 -12.8422 196.86Z" stroke="#006F28" stroke-width="2.84864" stroke-linecap="round" stroke-linejoin="round"/>
<path d="M-17.6175 215.618C-16.2964 213.373 -16.9877 210.299 -18.7803 208.949M-10.5682 194.314C-8.16601 195.663 -4.6987 194.908 -3.52438 192.912M2.98989 196.571C1.70412 198.757 2.00094 201.742 3.99988 203.107M-3.72482 217.296C-6.32663 215.835 -9.64839 216.711 -11.1441 219.253" stroke="#006F28" stroke-width="2.84864" stroke-linecap="round" stroke-linejoin="round"/>
<path d="M8.29962 204.147C7.57819 205.01 6.78757 206.096 5.99457 207.444C3.08712 212.386 4.13223 215.031 -0.625515 220.568" stroke="#006F28" stroke-width="2.84864" stroke-linecap="round" stroke-linejoin="round"/>
<path d="M56.8181 174.041C54.2885 172.621 50.4318 174.539 48.2039 178.326C45.976 182.112 46.2206 186.334 48.7501 187.755C51.2797 189.176 53.7761 188.09 56.7099 183.103C59.6437 178.117 62.4192 176.358 65.6908 178.196C68.9624 180.033 68.3008 184.117 65.8703 188.248C63.4398 192.38 59.419 194.577 56.8894 193.156" stroke="#006F28" stroke-width="2.84864" stroke-linecap="round"/>
<path d="M46.1875 176.43L48.2015 177.561M68.5649 188.999L66.5509 187.868" stroke="#006F28" stroke-width="2.84864" stroke-linecap="round" stroke-linejoin="round"/>
<path d="M15.2492 -2.35873C12.555 -1.85145 9.91006 -1.89927 8.88493 -3.31257L2.26709 -23.3989" stroke="#006F28" stroke-width="2.84864" stroke-linecap="round"/>
</g>
<path d="M105.222 68.5C113.797 68.5 120.75 75.4518 120.75 84.0273C120.75 92.6031 113.797 99.5557 105.222 99.5557C96.6461 99.5554 89.6943 92.603 89.6943 84.0273C89.6946 75.4519 96.6463 68.5002 105.222 68.5Z" fill="white" stroke="white" stroke-width="5"/>
<path d="M129.416 109.444C137.992 109.444 144.944 116.396 144.944 124.972C144.944 133.547 137.992 140.5 129.416 140.5C120.84 140.5 113.889 133.547 113.889 124.972C113.889 116.396 120.841 109.445 129.416 109.444Z" fill="white" stroke="white" stroke-width="5"/>
<path d="M81.0273 109.444C89.603 109.444 96.5554 116.396 96.5557 124.972C96.5557 133.547 89.6031 140.5 81.0273 140.5C72.4518 140.5 65.5 133.547 65.5 124.972C65.5002 116.396 72.4519 109.445 81.0273 109.444Z" fill="white" stroke="white" stroke-width="5"/>
</g>
</g>
<defs>
<clipPath id="clip0_19_3708">
<rect width="209" height="209" rx="78" fill="white"/>
</clipPath>
</defs>
</svg>
