<svg width="212" height="236" viewBox="0 0 212 236" fill="none" xmlns="http://www.w3.org/2000/svg">
<g clip-path="url(#clip0_19_865)">
<path d="M124.729 8.00391C132.652 -2.00572 149.234 -2.0058 157.158 8.00391L163.605 16.1475C169.478 23.5647 181.922 22.9797 186.893 15.0254C190.114 9.87174 196.11 8.29529 201.348 9.52539C206.584 10.7555 210.919 14.7509 210.919 20.6211V215.356C210.919 221.226 206.585 225.223 201.349 226.453C196.111 227.683 190.114 226.106 186.893 220.952C181.922 212.999 169.478 212.413 163.605 219.831L157.158 227.975C149.357 237.827 133.168 237.981 125.106 228.437L124.729 227.975L123.715 226.693L123.295 226.179C114.467 215.726 96.9477 215.726 88.1201 226.179L87.7002 226.693L86.6865 227.975C78.7627 237.984 62.1809 237.984 54.2568 227.975L47.8096 219.831C41.9376 212.413 29.4937 212.999 24.5225 220.952C21.3015 226.106 15.3036 227.683 10.0664 226.453C4.82991 225.223 0.496094 221.226 0.496094 215.356V20.6211C0.496306 14.7511 4.83013 10.7556 10.0664 9.52539C15.3037 8.29512 21.3015 9.87163 24.5225 15.0254C29.4938 22.9796 41.9376 23.5647 47.8096 16.1475L54.2568 8.00391C62.1808 -2.00576 78.7627 -2.00576 86.6865 8.00391L87.7002 9.28418C96.3807 20.2482 114.325 20.4195 123.295 9.79785L123.715 9.28418L124.729 8.00391Z" fill="#18B852" stroke="black" stroke-width="0.992558" stroke-linejoin="round"/>
<g opacity="0.48">
<path d="M164.891 94.3743L163.981 93.3416C163.182 92.4342 161.628 92.6127 161.078 93.6748C160.305 95.1656 157.904 94.7478 157.792 93.1032L156.021 67.1109C155.909 65.4662 158.232 64.741 159.2 66.1185C159.89 67.1 161.454 67.0756 162.123 66.0728L162.885 64.9314C163.844 63.4934 166.042 63.3504 167.189 64.6514L167.332 64.8138C168.548 66.1943 170.88 66.0426 171.898 64.5167L172.018 64.3373C172.977 62.8992 175.176 62.7562 176.322 64.0573L177.232 65.0899C178.031 65.9972 179.584 65.8189 180.135 64.7567C180.907 63.2659 183.309 63.6837 183.421 65.3284L185.192 91.3207C185.304 92.9654 182.98 93.6906 182.012 92.3129C181.323 91.3315 179.759 91.3559 179.09 92.3588L178.328 93.5001C177.369 94.9381 175.17 95.0811 174.024 93.7801L173.881 93.6176C172.665 92.2372 170.332 92.3889 169.314 93.9147L169.195 94.0943C168.235 95.5323 166.037 95.6753 164.891 94.3743Z" stroke="#006F28" stroke-width="3.0263" stroke-linejoin="round"/>
<path d="M175.112 74.1761L166.085 84.2543" stroke="#006F28" stroke-width="3.0263" stroke-linecap="round" stroke-linejoin="round"/>
<path d="M175.756 83.6252L175.742 83.6262M165.456 74.8042L165.442 74.8052" stroke="#006F28" stroke-width="3.0263" stroke-linecap="round" stroke-linejoin="round"/>
<path d="M194.353 171.657L191.507 169.176C190.785 168.547 190.424 168.232 189.973 168.132C189.486 168.023 189.025 168.171 188.04 168.515C186.937 168.9 184.655 170.104 183.534 169.109C182.848 168.499 183.082 167.329 183.55 164.987L186.844 148.495C187.719 144.114 188.156 141.923 189.821 140.828C191.486 139.732 193.728 140.16 198.213 141.015L206.14 142.526C210.624 143.382 212.866 143.809 213.987 145.436C215.109 147.063 214.671 149.254 213.796 153.635L210.502 170.127C210.034 172.468 209.8 173.639 208.93 173.952C207.508 174.463 205.857 172.508 204.983 171.746C204.261 171.117 203.9 170.802 203.449 170.702C202.962 170.593 202.501 170.741 201.516 171.085L197.924 172.338C196.955 172.676 196.471 172.845 195.988 172.753C195.505 172.661 195.121 172.326 194.353 171.657Z" stroke="#006F28" stroke-width="3.0263" stroke-linecap="round" stroke-linejoin="round"/>
<path d="M205.078 151.972L193.709 159.453" stroke="#006F28" stroke-width="3.0263" stroke-linecap="round" stroke-linejoin="round"/>
<path d="M203.222 161.267L203.208 161.264M195.58 150.161L195.566 150.158" stroke="#006F28" stroke-width="3.0263" stroke-linecap="round" stroke-linejoin="round"/>
<path d="M127.28 221.748C128.217 221.927 128.685 222.017 129.081 222.253C129.136 222.285 129.19 222.32 129.242 222.357C129.619 222.621 129.886 223.008 130.419 223.782C131.646 225.563 132.26 226.453 133.184 226.701C133.309 226.734 133.435 226.758 133.563 226.773C134.515 226.883 135.427 226.284 137.249 225.084C138.041 224.563 138.437 224.303 138.888 224.196C138.951 224.182 139.014 224.169 139.077 224.159C139.535 224.086 140.004 224.175 140.941 224.354L141.113 224.387C143.504 224.842 144.7 225.07 145.587 224.486C146.475 223.902 146.708 222.734 147.175 220.398L147.208 220.23C147.391 219.314 147.483 218.856 147.724 218.469C147.758 218.416 147.794 218.363 147.831 218.312C148.102 217.944 148.498 217.683 149.29 217.162C151.112 215.963 152.024 215.363 152.277 214.46C152.311 214.339 152.336 214.215 152.351 214.09C152.464 213.16 151.85 212.269 150.623 210.488C150.089 209.714 149.823 209.328 149.714 208.887C149.699 208.826 149.686 208.764 149.675 208.702C149.6 208.255 149.692 207.797 149.875 206.881L149.908 206.713C150.375 204.377 150.608 203.209 150.01 202.341C149.413 201.474 148.217 201.246 145.827 200.79L145.654 200.757C144.717 200.579 144.248 200.489 143.852 200.253C143.797 200.22 143.744 200.186 143.691 200.149C143.315 199.884 143.048 199.498 142.515 198.724C141.287 196.943 140.674 196.052 139.749 195.805C139.625 195.771 139.498 195.747 139.37 195.733C138.418 195.622 137.507 196.222 135.684 197.421C134.892 197.942 134.496 198.203 134.046 198.309C133.983 198.324 133.92 198.337 133.856 198.347C133.399 198.42 132.93 198.331 131.993 198.152L131.82 198.119C129.43 197.663 128.234 197.435 127.347 198.019C126.459 198.603 126.226 199.771 125.759 202.107L125.725 202.276C125.542 203.192 125.451 203.65 125.209 204.036C125.176 204.09 125.14 204.143 125.103 204.194C124.832 204.562 124.436 204.822 123.644 205.343C121.821 206.543 120.91 207.142 120.657 208.046C120.623 208.167 120.598 208.291 120.583 208.416C120.47 209.346 121.084 210.237 122.311 212.017C122.844 212.791 123.111 213.178 123.22 213.619C123.235 213.68 123.248 213.741 123.258 213.804C123.333 214.251 123.242 214.709 123.059 215.624L123.025 215.793C122.559 218.129 122.325 219.297 122.923 220.164C123.521 221.032 124.716 221.26 127.107 221.716L127.28 221.748Z" stroke="#006F28" stroke-width="3.0263"/>
<path d="M142.154 207.512L130.785 214.993" stroke="#006F28" stroke-width="3.0263" stroke-linecap="round" stroke-linejoin="round"/>
<path d="M140.298 216.807L140.28 216.804M132.659 205.701L132.642 205.698" stroke="#006F28" stroke-width="3.0263" stroke-linecap="round" stroke-linejoin="round"/>
<path d="M139.786 43.0688C140.723 43.2475 141.191 43.3368 141.587 43.573C141.642 43.6057 141.696 43.6405 141.748 43.6772C142.125 43.9417 142.392 44.3285 142.925 45.1022C144.152 46.8831 144.766 47.7736 145.69 48.0212C145.815 48.0545 145.941 48.0787 146.069 48.0935C147.021 48.2038 147.933 47.6041 149.755 46.4048C150.547 45.8838 150.943 45.6233 151.394 45.5166C151.457 45.5019 151.52 45.4893 151.583 45.4793C152.041 45.4059 152.51 45.4953 153.447 45.6739L153.619 45.7069C156.01 46.1628 157.206 46.3908 158.093 45.8066C158.981 45.2227 159.214 44.0546 159.681 41.7187L159.714 41.5499C159.897 40.6344 159.989 40.1766 160.23 39.7896C160.264 39.7359 160.3 39.6835 160.337 39.6323C160.608 39.2642 161.004 39.0037 161.796 38.4825C163.618 37.2834 164.53 36.6837 164.783 35.7803C164.817 35.659 164.842 35.5351 164.857 35.4101C164.97 34.4799 164.356 33.5896 163.129 31.8086C162.595 31.0348 162.329 30.6479 162.22 30.2074C162.205 30.1462 162.192 30.0845 162.181 30.0224C162.106 29.5752 162.198 29.1174 162.381 28.2018L162.414 28.0329C162.881 25.697 163.114 24.529 162.516 23.6617C161.919 22.7944 160.723 22.5665 158.333 22.1106L158.16 22.0776C157.223 21.8989 156.754 21.8096 156.358 21.5734C156.303 21.5406 156.25 21.5058 156.197 21.4691C155.821 21.2047 155.554 20.8178 155.021 20.0441C153.793 18.2632 153.18 17.3727 152.255 17.1251C152.131 17.0918 152.004 17.0676 151.876 17.0528C150.924 16.9426 150.013 17.5422 148.19 18.7415C147.398 19.2625 147.002 19.5231 146.552 19.6296C146.489 19.6444 146.426 19.6569 146.362 19.6671C145.905 19.7405 145.436 19.6511 144.499 19.4724L144.326 19.4395C141.935 18.9836 140.74 18.7556 139.853 19.3397C138.965 19.9237 138.732 21.0917 138.265 23.4276L138.231 23.5965C138.048 24.512 137.957 24.9698 137.715 25.3567C137.682 25.4104 137.646 25.4629 137.609 25.514C137.338 25.8821 136.942 26.1427 136.15 26.6637C134.327 27.8631 133.416 28.4626 133.163 29.366C133.129 29.4873 133.104 29.6112 133.089 29.7362C132.976 30.6664 133.59 31.5569 134.817 33.3377C135.35 34.1116 135.617 34.4983 135.726 34.9389C135.741 35.0001 135.754 35.0617 135.764 35.1239C135.839 35.5713 135.748 36.029 135.565 36.9445L135.531 37.1134C135.065 39.4493 134.831 40.6173 135.429 41.4846C136.027 42.352 137.222 42.5799 139.613 43.0358L139.786 43.0688Z" stroke="#006F28" stroke-width="3.0263"/>
<path d="M154.649 28.8326L143.28 36.3132" stroke="#006F28" stroke-width="3.0263" stroke-linecap="round" stroke-linejoin="round"/>
<path d="M152.793 38.1273L152.775 38.124M145.154 27.0218L145.137 27.0186" stroke="#006F28" stroke-width="3.0263" stroke-linecap="round" stroke-linejoin="round"/>
<path d="M29.9565 153.206C30.8537 152.882 31.3023 152.72 31.7633 152.721C31.8273 152.721 31.8912 152.724 31.955 152.729C32.4139 152.764 32.8405 152.961 33.6937 153.355C35.6576 154.261 36.6395 154.715 37.5611 154.456C37.6849 154.422 37.8064 154.378 37.9239 154.325C38.7991 153.935 39.2774 152.954 40.2338 150.993C40.6496 150.141 40.8573 149.715 41.1908 149.394C41.2372 149.349 41.2851 149.306 41.3346 149.265C41.6911 148.969 42.1397 148.807 43.0369 148.483L43.2023 148.423C45.4914 147.596 46.636 147.183 47.1017 146.228C47.5677 145.273 47.1729 144.149 46.3834 141.902L46.3263 141.739C46.0169 140.858 45.8622 140.418 45.8728 139.962C45.8742 139.899 45.8782 139.835 45.8843 139.772C45.9296 139.317 46.1373 138.892 46.5528 138.039C47.5095 136.079 47.9878 135.098 47.7452 134.192C47.7127 134.07 47.6708 133.951 47.62 133.836C47.2429 132.978 46.261 132.525 44.2971 131.618C43.4439 131.225 43.0174 131.028 42.6988 130.704C42.6547 130.659 42.6121 130.613 42.5716 130.565C42.279 130.218 42.1243 129.778 41.8148 128.897L41.7577 128.734C40.9682 126.487 40.5735 125.363 39.617 124.922C38.6607 124.48 37.5161 124.894 35.227 125.72L35.0615 125.78C34.1644 126.104 33.7158 126.266 33.2547 126.265C33.1906 126.265 33.1268 126.262 33.063 126.257C32.6041 126.222 32.1775 126.025 31.3242 125.631C29.3605 124.725 28.3785 124.272 27.4569 124.53C27.3331 124.565 27.2117 124.609 27.0941 124.661C26.2189 125.052 25.7407 126.032 24.7841 127.993C24.3685 128.845 24.1607 129.271 23.8271 129.592C23.7808 129.637 23.7329 129.68 23.6834 129.721C23.327 130.018 22.8784 130.18 21.9812 130.504L21.8157 130.563C19.5266 131.39 18.3821 131.803 17.9162 132.758C17.4504 133.713 17.8451 134.837 18.6346 137.085L18.6917 137.247C19.0012 138.128 19.1559 138.568 19.1452 139.024C19.1438 139.088 19.1399 139.151 19.1336 139.214C19.0885 139.669 18.8807 140.095 18.4651 140.947C17.5086 142.908 17.0302 143.888 17.2728 144.794C17.3054 144.916 17.3472 145.035 17.3979 145.151C17.7751 146.008 18.757 146.462 20.7208 147.368C21.5741 147.762 22.0007 147.959 22.3191 148.282C22.3634 148.327 22.4058 148.373 22.4464 148.421C22.7391 148.768 22.8938 149.209 23.2032 150.089L23.2603 150.252C24.0498 152.499 24.4446 153.623 25.401 154.064C26.3574 154.506 27.5019 154.092 29.791 153.266L29.9565 153.206Z" stroke="#006F28" stroke-width="3.0263"/>
<path d="M35.4852 133.381L29.5184 145.613" stroke="#006F28" stroke-width="3.0263" stroke-linecap="round" stroke-linejoin="round"/>
<path d="M38.6267 142.324L38.6103 142.33M26.3932 136.665L26.3769 136.67" stroke="#006F28" stroke-width="3.0263" stroke-linecap="round" stroke-linejoin="round"/>
<path d="M140.101 173.897C146.213 177.497 154.155 175.574 157.84 169.602C162.844 161.492 156.781 146.862 156.781 146.862C154.169 149.908 152.53 151.402 149.01 153.343C147.811 151.614 147.769 150.769 148.12 148.672C143.476 150.083 138.208 152.509 135.706 156.564C132.021 162.536 133.989 170.296 140.101 173.897Z" stroke="#006F28" stroke-width="3.0263" stroke-linejoin="round"/>
<path d="M141.509 165.508L150.379 163.361" stroke="#006F28" stroke-width="3.0263" stroke-linecap="round" stroke-linejoin="round"/>
<path d="M144.845 160.101L144.858 160.108M147.031 168.76L147.043 168.767" stroke="#006F28" stroke-width="3.0263" stroke-linecap="round" stroke-linejoin="round"/>
<path d="M100.334 42.9885C105.561 41.3445 109.378 38.7379 108.86 37.1665C108.343 35.5951 103.686 35.654 98.4594 37.2981C93.2328 38.9421 89.4155 41.5487 89.9332 43.1201C90.4509 44.6915 95.1076 44.6326 100.334 42.9885Z" stroke="#006F28" stroke-width="3.0263"/>
<path d="M110.961 43.5669C111.479 45.1383 107.662 47.7448 102.435 49.3889C97.2084 51.033 92.5517 51.0919 92.034 49.5205" stroke="#006F28" stroke-width="3.0263"/>
<path d="M108.866 37.1636L112.991 49.6825C113.56 51.4109 109.785 54.145 104.558 55.789C99.3314 57.4331 94.6327 57.3646 94.0633 55.6361L89.9387 43.1172" stroke="#006F28" stroke-width="3.0263"/>
<path d="M86.8645 36.2361C92.0912 34.592 95.9085 31.9854 95.3908 30.414C94.873 28.8427 90.2163 28.9016 84.9897 30.5457C79.7631 32.1897 75.9458 34.7963 76.4635 36.3677C76.9812 37.939 81.6379 37.8801 86.8645 36.2361Z" stroke="#006F28" stroke-width="3.0263"/>
<path d="M85.5574 44.4938C82.6951 45.0327 79.8853 44.9819 78.7962 43.4805M87.9009 51.6068C85.0386 52.1457 82.2288 52.0949 81.1397 50.5935" stroke="#006F28" stroke-width="3.0263" stroke-linecap="round"/>
<path d="M90.2495 58.7205C87.3872 59.2595 84.5773 59.2087 83.4883 57.7072L76.4577 36.3682" stroke="#006F28" stroke-width="3.0263" stroke-linecap="round"/>
<path d="M96.3201 33.2573L95.3827 30.4121" stroke="#006F28" stroke-width="3.0263" stroke-linecap="round"/>
<path d="M25.3232 57.2517C26.7416 58.7804 26.6233 61.1432 25.0587 62.5292C23.4942 63.9152 21.076 63.7996 19.6575 62.2709C18.239 60.7422 18.3574 58.3793 19.9219 56.9933C21.4865 55.6073 23.9047 55.723 25.3232 57.2517Z" stroke="#006F28" stroke-width="3.0263" stroke-linecap="round" stroke-linejoin="round"/>
<path d="M19.8312 47.9951C22.6407 45.5062 24.9741 44.2142 26.3423 43.5914C27.1301 43.2328 28.0261 43.4767 28.6098 44.1057L38.632 54.9066C39.7776 56.1412 39.2479 58.3029 37.7938 59.1738C36.5462 59.9209 35.0111 60.9932 33.2993 62.5097C27.9159 67.2788 28.4798 70.4219 19.0098 75.7129C18.0959 76.2235 16.9393 76.0287 16.2322 75.2666L5.94107 64.1759C4.93852 63.0955 5.25078 61.3832 6.53055 60.6327C14.9787 55.678 14.6425 52.5918 19.8312 47.9951Z" stroke="#006F28" stroke-width="3.0263" stroke-linecap="round" stroke-linejoin="round"/>
<path d="M8.07575 66.4782C10.2869 64.5194 10.6352 60.9933 9.1932 58.9404M23.1772 46.0393C25.2727 48.2975 29.2548 48.6619 31.2202 46.9207M36.9026 53.0446C34.7507 54.951 34.0108 58.2494 35.6687 60.3879M22.3648 72.9763C20.0952 70.5304 16.226 70.3453 13.7228 72.5629" stroke="#006F28" stroke-width="3.0263" stroke-linecap="round" stroke-linejoin="round"/>
<path d="M39.9084 62.9571C38.8297 63.6376 37.5976 64.5345 36.2703 65.7102C31.4042 70.0211 31.5868 73.2077 24.5272 77.5309" stroke="#006F28" stroke-width="3.0263" stroke-linecap="round" stroke-linejoin="round"/>
<path d="M42.8977 184.266C40.2104 182.756 36.1132 184.794 33.7464 188.817C31.3795 192.84 31.6393 197.325 34.3266 198.835C37.014 200.344 39.6661 199.19 42.7829 193.893C45.8996 188.595 48.8482 186.727 52.3239 188.679C55.7995 190.631 55.0966 194.97 52.5145 199.359C49.9325 203.748 45.6609 206.082 42.9735 204.572" stroke="#006F28" stroke-width="3.0263" stroke-linecap="round"/>
<path d="M31.6043 186.803L33.7439 188.005M55.3773 200.156L53.2377 198.954" stroke="#006F28" stroke-width="3.0263" stroke-linecap="round" stroke-linejoin="round"/>
<path d="M-1.26311 -3.1359C-4.12538 -2.59699 -6.93524 -2.64778 -8.0243 -4.14922L-15.0549 -25.4883" stroke="#006F28" stroke-width="3.0263" stroke-linecap="round"/>
</g>
</g>
<g filter="url(#filter0_d_19_865)">
<path d="M75.4344 82.3823L122.215 109.39C128.774 113.177 128.774 122.645 122.215 126.431L75.4344 153.44" stroke="white" stroke-width="12.025" stroke-linecap="round"/>
</g>
<defs>
<filter id="filter0_d_19_865" x="53.5088" y="67.4895" width="95.5501" height="114.909" filterUnits="userSpaceOnUse" color-interpolation-filters="sRGB">
<feFlood flood-opacity="0" result="BackgroundImageFix"/>
<feColorMatrix in="SourceAlpha" type="matrix" values="0 0 0 0 0 0 0 0 0 0 0 0 0 0 0 0 0 0 127 0" result="hardAlpha"/>
<feOffset dy="7.03298"/>
<feGaussianBlur stdDeviation="7.95606"/>
<feComposite in2="hardAlpha" operator="out"/>
<feColorMatrix type="matrix" values="0 0 0 0 0 0 0 0 0 0 0 0 0 0 0 0 0 0 0.1 0"/>
<feBlend mode="normal" in2="BackgroundImageFix" result="effect1_dropShadow_19_865"/>
<feBlend mode="normal" in="SourceGraphic" in2="effect1_dropShadow_19_865" result="shape"/>
</filter>
<clipPath id="clip0_19_865">
<rect width="211.415" height="235.978" rx="19.8512" fill="white"/>
</clipPath>
</defs>
</svg>
